<svg xmlns="http://www.w3.org/2000/svg" viewBox="0 0 32 32" width="32" height="32">
  <defs>
    <linearGradient id="grad" x1="0%" y1="0%" x2="100%" y2="100%">
      <stop offset="0%" stop-color="#1e293b"/>
      <stop offset="100%" stop-color="#3b82f6"/>
    </linearGradient>
  </defs>
  <!-- 吹き出し本体 -->
  <path d="M4 6 Q4 2 8 2 L24 2 Q28 2 28 6 L28 18 Q28 22 24 22 L12 22 L7 27 L8 22 L8 22 Q4 22 4 18 Z" fill="url(#grad)"/>
  <!-- ニューラルノード風ドットパターン -->
  <circle cx="11" cy="10" r="1.5" fill="#ffffff" opacity="0.9"/>
  <circle cx="16" cy="7" r="1.2" fill="#ffffff" opacity="0.7"/>
  <circle cx="21" cy="10" r="1.5" fill="#ffffff" opacity="0.9"/>
  <circle cx="13.5" cy="15" r="1.2" fill="#ffffff" opacity="0.7"/>
  <circle cx="18.5" cy="15" r="1.2" fill="#ffffff" opacity="0.7"/>
  <!-- ノード間の接続線 -->
  <line x1="11" y1="10" x2="16" y2="7" stroke="#ffffff" stroke-width="0.6" opacity="0.4"/>
  <line x1="16" y1="7" x2="21" y2="10" stroke="#ffffff" stroke-width="0.6" opacity="0.4"/>
  <line x1="11" y1="10" x2="13.5" y2="15" stroke="#ffffff" stroke-width="0.6" opacity="0.4"/>
  <line x1="21" y1="10" x2="18.5" y2="15" stroke="#ffffff" stroke-width="0.6" opacity="0.4"/>
  <line x1="13.5" y1="15" x2="18.5" y2="15" stroke="#ffffff" stroke-width="0.6" opacity="0.4"/>
</svg>
